<?xml version="1.0" standalone="no"?>
<!DOCTYPE svg PUBLIC "-//W3C//DTD SVG 20010904//EN"
 "http://www.w3.org/TR/2001/REC-SVG-20010904/DTD/svg10.dtd">
<svg version="1.0" xmlns="http://www.w3.org/2000/svg"
 width="512.000000pt" height="512.000000pt" viewBox="0 0 512.000000 512.000000"
 preserveAspectRatio="xMidYMid meet">

<g transform="translate(0.000000,512.000000) scale(0.100000,-0.100000)"
fill="#000000" stroke="none">
<path d="M2323 5110 c-593 -58 -1155 -323 -1574 -743 -401 -402 -647 -905
-731 -1492 -20 -140 -17 -504 6 -660 39 -278 121 -541 247 -794 331 -667 931
-1152 1657 -1340 509 -132 1067 -98 1560 94 349 137 639 330 907 606 205 210
340 404 465 663 119 246 190 474 232 741 31 200 31 550 0 750 -43 273 -114
500 -237 750 -132 270 -269 461 -489 680 -405 405 -875 642 -1446 730 -124 19
-466 27 -597 15z m562 -184 c544 -80 1020 -323 1392 -710 627 -651 833 -1588
537 -2436 -120 -345 -309 -646 -569 -905 -275 -275 -570 -457 -940 -581 -596
-199 -1227 -155 -1800 126 -661 324 -1138 941 -1284 1662 -35 170 -45 281 -45
478 0 260 28 460 100 696 272 898 1069 1567 1994 1673 52 6 111 13 130 15 69
8 387 -4 485 -18z"/>
<path d="M2241 4669 c-689 -104 -1289 -545 -1596 -1172 -103 -211 -176 -454
-205 -687 -15 -126 -12 -402 6 -532 133 -959 873 -1699 1832 -1832 130 -18
406 -21 532 -5 725 89 1358 541 1669 1190 145 301 211 593 211 927 0 249 -30
440 -106 671 -151 461 -457 854 -879 1131 -171 112 -425 220 -646 274 -240 59
-570 73 -818 35z m469 -599 c36 -11 87 -33 113 -50 l48 -30 -48 -39 c-157
-125 -249 -302 -260 -502 -6 -107 10 -201 52 -303 13 -33 22 -62 19 -65 -3 -4
-42 -5 -87 -4 -278 5 -498 229 -497 508 1 88 13 142 51 223 46 95 134 184 233
232 125 62 236 71 376 30z m711 -180 c200 -74 329 -263 329 -480 0 -186 -112
-371 -273 -450 -155 -76 -310 -76 -463 0 -255 125 -356 440 -223 690 41 77 82
125 151 176 135 99 321 124 479 64z m-1461 25 c0 -3 -9 -24 -21 -46 -58 -116
-76 -310 -40 -451 36 -141 128 -285 231 -364 28 -21 49 -43 47 -49 -6 -21
-147 -83 -218 -96 -253 -45 -521 131 -578 381 -13 58 -13 192 0 249 16 72 70
169 124 226 102 106 216 154 363 155 50 0 92 -2 92 -5z m780 -1038 c30 -14 63
-27 73 -30 9 -4 17 -11 17 -16 0 -19 -94 -133 -163 -197 -66 -61 -238 -184
-257 -184 -23 0 -34 175 -21 308 17 163 -1 147 159 145 119 -2 143 -5 192 -26z
m-524 -250 c0 -170 3 -204 26 -302 14 -60 42 -153 62 -206 20 -53 36 -103 36
-110 -1 -28 -26 -59 -79 -99 -68 -50 -108 -53 -144 -11 -27 32 -80 188 -98
291 -16 90 -14 294 5 423 17 117 28 147 54 147 13 1 137 54 137 59 0 1 0 -86
1 -192z m1301 95 c66 -53 182 -178 194 -209 13 -34 4 -58 -47 -124 -46 -60
-77 -76 -116 -59 -13 6 -70 50 -127 99 -57 49 -144 113 -193 142 -48 29 -100
67 -114 86 -24 32 -24 34 -7 56 16 23 22 24 113 20 59 -2 118 2 155 10 87 21
89 21 142 -21z m-1714 11 c64 -7 62 0 46 -108 l-12 -76 -51 -26 c-69 -35 -152
-92 -237 -163 -54 -45 -79 -60 -103 -60 -56 0 -118 72 -108 125 7 38 132 166
245 251 88 67 104 75 131 70 17 -4 57 -9 89 -13z m1228 -264 c48 -80 98 -203
99 -240 0 -37 -33 -75 -84 -94 -38 -15 -48 -15 -73 -3 -16 7 -34 28 -43 48 -8
19 -40 85 -70 146 l-57 111 41 26 c23 15 59 42 81 61 48 41 50 39 106 -55z"/>
</g>
</svg>
